<svg viewBox="0 0 200 200" xmlns="http://www.w3.org/2000/svg">
  <!-- Blob Shape -->
  <path fill="#8A3FFC" d="M36.1,-55.2C45.7,-42.8,51.5,-30.7,54,-18.6C56.5,-6.5,55.7,5.7,53.5,18.9C51.3,32.1,47.7,46.4,38.5,49.6C29.4,52.9,14.7,45.2,-1.4,47.2C-17.5,49.1,-35.1,60.8,-40.3,56.2C-45.4,51.7,-38.2,30.9,-44.6,13.9C-50.9,-3.1,-70.8,-16.3,-68,-21.2C-65.2,-26.2,-39.8,-23,-24.7,-33.6C-9.5,-44.3,-4.8,-68.8,4.3,-74.6C13.3,-80.5,26.6,-67.7,36.1,-55.2Z" transform="translate(100 100)"></path>

  <!-- Bold "LOB" Text -->
  <text x="100" y="115" text-anchor="middle" font-size="40" font-weight="bold" fill="white" font-family="Poppins, Arial Black, sans-serif">
    LOB
  </text>
</svg>
